<?xml version="1.0" encoding="utf-8"?>
<!-- Generator: Adobe Illustrator 18.0.0, SVG Export Plug-In . SVG Version: 6.00 Build 0)  -->
<!DOCTYPE svg PUBLIC "-//W3C//DTD SVG 1.1//EN" "http://www.w3.org/Graphics/SVG/1.1/DTD/svg11.dtd">
<svg version="1.1" id="Layer_1" xmlns="http://www.w3.org/2000/svg" xmlns:xlink="http://www.w3.org/1999/xlink" x="0px" y="0px"
	 viewBox="0 0 64 64" enable-background="new 0 0 64 64" xml:space="preserve" fill="white">
<g>
	<g>
		<path d="M64,39V25h-8c-0.5-1.7-1.2-3.4-2.1-5l5.7-5.7l-9.9-9.9L44,10.1c-1.6-0.9-3.3-1.6-5-2.1V0H25v8c-1.7,0.5-3.4,1.2-5,2.1
			l-5.7-5.7l-9.9,9.9l5.7,5.7c-0.9,1.6-1.6,3.3-2.1,5H0v14h8c0.5,1.7,1.2,3.4,2.1,5l-5.7,5.7l9.9,9.9l5.7-5.7c1.6,0.9,3.3,1.6,5,2.1
			v8h14v-8c1.7-0.5,3.4-1.2,5-2.1l5.7,5.7l9.9-9.9L53.9,44c0.9-1.6,1.6-3.3,2.1-5H64z M32,44c-6.6,0-12-5.4-12-12s5.4-12,12-12
			s12,5.4,12,12S38.6,44,32,44z"/>
	</g>
</g>
</svg>
